PathFileType	4	(X/Y/Z)	Patient4_TMGait_0pt7_02_left_28.trc.trc
DataRate	CameraRate	NumFrames	NumMarkers	Units	OrigDataRate	OrigDataStartFrame	OrigNumFrames
86.956521739130	86.956521739130	5	33	mm	86.956521739130	124	       141
Frame#	Time	Sacral			L.Shoulder			Chest			R.Shoulder			Neck			R.ASIS			L.ASIS			R.Thigh.Superior			R.Thigh.Lateral			R.Thigh.Inferior			R.Patella			L.Thigh.Superior			L.Thigh.Lateral			L.Thigh.Inferior			L.Patella			L.Shank.Superior			L.Shank.Lateral			L.Shank.Inferior			R.Shank.Superior			R.Shank.Lateral			R.Shank.Inferior			R.Heel			R.Midfoot.Superior			R.Midfoot.Lateral			R.Toe			L.Heel			L.Midfoot.Lateral			L.Midfoot.Superior			L.Toe			L.Elbow			L.Wrist			R.Elbow			R.Wrist			
		X1	Y1	Z1	X2	Y2	Z2	X3	Y3	Z3	X4	Y4	Z4	X5	Y5	Z5	X6	Y6	Z6	X7	Y7	Z7	X8	Y8	Z8	X9	Y9	Z9	X10	Y10	Z10	X11	Y11	Z11	X12	Y12	Z12	X13	Y13	Z13	X14	Y14	Z14	X15	Y15	Z15	X16	Y16	Z16	X17	Y17	Z17	X18	Y18	Z18	X19	Y19	Z19	X20	Y20	Z20	X21	Y21	Z21	X22	Y22	Z22	X23	Y23	Z23	X24	Y24	Z24	X25	Y25	Z25	X26	Y26	Z26	X27	Y27	Z27	X28	Y28	Z28	X29	Y29	Z29	X30	Y30	Z30	X31	Y31	Z31	X32	Y32	Z32	X33	Y33	Z33	

124	33.334500000000	850.755622154015	1009.291137187165	503.048631099767	1043.394567916074	1413.747569019828	295.424309103655	1161.174590805109	1336.526912926996	443.104109863912	1111.359610059667	1423.832620799631	622.037291764982	1071.652258165930	1476.367639255553	447.493665996084	1074.684639858985	927.563135243647	608.037811054110	1048.967175366129	939.114586863205	333.345915879152	1062.354748130514	714.596173191205	584.307245370859	954.934583979037	627.236080285054	649.233864754346	1009.912380216265	557.548467767461	568.664404385210	989.849393349911	473.749162545134	573.363150112063	1122.493178353390	766.485500882097	374.414189179203	1079.567814006966	638.608538783810	291.567057035120	1181.124545083583	581.685710647387	357.733098090484	1206.848517969645	514.293229817182	355.085653990196	1188.874132741521	440.030652357162	341.391370869516	1120.593238839838	313.059015881959	286.834229182067	1202.321343778723	210.945417848746	343.665166548186	948.520121316494	392.419186720610	582.108286609647	865.940597971977	300.457400660403	648.738421202123	889.510289062606	200.552656036508	583.382428558790	736.448498497163	43.911982301246	559.119670933819	908.280309913108	95.906607596367	591.531386668434	820.408693364967	36.856863114382	632.216835632657	1028.845236227670	41.334037819616	619.212244239728	1111.555259994382	37.856821492345	375.124370762234	1187.848852230403	41.692867432183	297.097388473471	1260.747509140553	113.302556480721	323.990058347694	1393.912829372482	78.250499821696	300.877670806812	858.822269592151	1112.325959192368	213.237355080955	785.365761215408	863.147641805545	232.464044724737	1255.935410430323	1121.153541713848	725.512319913221	1420.691489425338	1260.467320429090	606.966006266287	
125	33.346000000000	852.718139520413	1007.549132852573	500.310034867623	1043.625317765267	1412.778710519893	292.977327154770	1161.600105523995	1336.338111829029	440.900512068201	1110.608913386013	1423.311409634642	619.624173862658	1071.054713187802	1475.474139834199	445.089499362601	1076.632292030894	926.258496019715	605.703971553540	1051.567868303094	937.879484450716	331.427127472786	1063.057703553301	712.913181569101	582.579979585283	954.374564148241	626.409219260957	647.513605176325	1008.845688199628	556.010325329942	567.301286833085	988.014804636670	471.755761410329	572.025659209035	1124.489095938929	763.406465897925	372.309621578461	1079.042969257343	635.882484129781	290.653822907130	1180.631581040585	578.443266851217	356.573017222659	1204.879980721153	510.595204461553	354.621367800659	1186.754131433174	436.485051099016	340.948802291444	1117.466987063349	309.894479947927	287.002379116458	1198.013627830409	207.385679140902	344.343972367484	945.145070136040	391.169668060314	580.878799609549	861.381195370768	300.616375019527	648.033741472371	883.295302095173	200.206437927757	582.990669648120	728.410086074162	44.709662644060	559.300830329791	900.510539575458	95.975148233136	591.591194985011	812.444435922821	37.180385358384	632.382656269315	1020.882295537934	40.871811916017	619.314956762026	1104.365128904160	37.187395431533	376.712351455253	1180.469852459075	39.179275599039	298.286283338625	1255.396914474848	108.469247600517	325.312637936360	1387.760396118626	69.629047672758	301.795673021430	857.682332711452	1112.629031260514	212.022828233732	781.575948786109	864.226285190802	232.541971542886	1261.662143164793	1123.561612682775	720.510067534678	1417.883822005078	1271.635923916299	601.681780568115	
126	33.357500000000	854.479742651161	1006.047123184348	497.624461282971	1043.916641337484	1411.887566649796	290.433688729968	1162.085170699692	1336.191966708791	438.603695458356	1110.058591206797	1422.897034735419	617.147482772702	1070.661191151010	1474.721899789928	442.534926409378	1078.465185767028	925.085563676484	603.254522163249	1053.893230031738	936.965978972394	329.389454247525	1064.131584165642	711.437753608583	580.707948928267	954.499341387317	625.546053426457	645.606601663810	1008.672044488261	554.546593289076	565.726911615834	987.120881839891	469.644450324548	570.521512660471	1126.602582066847	761.197683104931	370.181699877005	1079.191179738642	634.052376975641	289.557905347541	1180.768151561061	576.179217552460	355.344440352889	1203.671928380593	507.755819514093	354.058424069451	1185.269192665958	433.650624045621	340.469521492303	1114.944578164162	307.686961746319	286.551196749747	1193.610664087135	204.473988120672	344.703537328438	942.580210469925	389.845503891847	579.523512198841	857.428885212172	300.916070520947	647.209108632649	877.471611888280	199.967672511433	582.557535087923	720.436918571090	45.980829565424	559.522369710526	892.934092451317	96.111746241987	591.665247477633	804.554540503305	37.731315892552	632.557063360626	1012.974520943320	40.360554831312	619.416225522514	1096.589948948277	37.007167354660	377.554947748558	1172.688352329421	37.328708451034	298.939607627085	1249.520168922204	104.390283029506	326.333927318070	1381.150477624566	61.921988493517	302.700354407080	857.368916932749	1112.356689775061	210.738221437385	778.935652457889	864.650345091961	232.349741689924	1266.560566605139	1125.622680953607	715.770160282712	1414.685956142526	1281.296550837636	596.775496360526	
127	33.369000000000	856.002939312243	1004.875747161440	495.004945860371	1044.258756346204	1411.156343698128	287.835476039077	1162.620394381247	1336.122304060187	436.224402169648	1109.783962549643	1422.642754953831	614.625744536205	1070.509532721570	1474.179117505247	439.878078815870	1080.126150937293	924.138206912313	600.691547428800	1055.888133592465	936.428681967378	327.179903849371	1065.511235608880	710.260258361757	578.679731569856	955.297433704905	624.704550287571	643.534368739299	1009.408746257100	553.225008132822	563.973431437238	987.214637516619	467.476160663449	568.940352770806	1128.793852837646	759.988523113356	368.042774311865	1080.023717387493	633.160831853509	288.276406006379	1181.476889467843	574.893207883868	354.018098326587	1203.184218199416	505.786257578351	353.348564524543	1184.375805428168	431.539593333696	339.945481284757	1112.984398958982	306.414348157554	285.561356041818	1189.170312482895	202.244792609943	344.782885915682	940.871282430266	388.506847515436	578.116618795595	854.101969567728	301.431926724140	646.296370005932	872.090507066555	199.912882516830	582.121566628681	712.574031733618	47.862414073950	559.781437332430	885.611029782523	96.333771150163	591.766792123786	796.761817521345	38.580398463961	632.731180432016	1005.122400663205	39.817444778075	619.506937324774	1088.504469799682	37.177699430550	377.781470442490	1164.723333021872	36.113070738766	299.144997073258	1243.204171544760	101.210344283023	327.046696879542	1374.210740815753	55.542304348946	303.497448541904	857.861549910926	1111.586132815817	209.360585599466	777.530130735964	864.439869235470	231.846283200314	1270.564417655588	1127.265417523407	711.349764894855	1411.197538907516	1289.440392552901	592.255758329572	
128	33.380500000000	857.279819449990	1004.093514329284	492.441116355066	1044.635171573025	1410.657198980982	285.223900333758	1163.190105787224	1336.162934860595	433.775706901350	1109.826395762743	1422.591868873079	612.076821862557	1070.608721178752	1473.899349104772	437.174475479448	1081.578342926618	923.495640256928	598.018867928078	1057.541246001972	936.288424680441	324.752956885410	1067.136365458216	709.455148722507	576.491630282881	956.745004198479	623.942975212517	641.330269871781	1011.056400207970	552.109268067345	562.088772348731	988.333459784449	465.312902845623	567.398506996786	1131.020768316389	759.782510161496	365.891085084973	1081.434929069013	633.120227186996	286.839546591987	1182.614163246990	574.451675917384	352.575785461941	1203.272535207346	504.579980989512	352.480697555466	1183.927791539384	430.073174806480	339.384148465866	1111.421589883314	305.953522887195	284.194455560229	1184.690817923876	200.650452448951	344.652586849510	940.048210232592	387.219370309481	576.749107224218	851.411493397646	302.244118086483	645.336737962106	867.205152453880	200.122635067845	581.730703354503	704.883359312126	50.490173419797	560.071984478788	878.603788349692	96.659490973957	591.911631740692	789.095122121078	39.804705563902	632.897320619535	997.320570529231	39.264853742499	619.577798431639	1080.308142671914	37.560750471542	377.560493276106	1156.716564051169	35.449028858141	299.020543318955	1236.515909678568	98.951082486867	327.480881017367	1367.029425149923	50.668524235374	304.121838535971	859.110627376598	1110.422039752190	207.868915547418	777.440419620468	863.637809132927	230.995687221904	1273.605901669888	1128.437995243024	707.298443336667	1407.515266548413	1296.059182771709	588.124502465666	
